<?xml version="1.0" encoding="utf-8"?>
<svg xmlns="http://www.w3.org/2000/svg" xmlns:xlink="http://www.w3.org/1999/xlink">
    <symbol viewBox="0 0 47 41" id="icon-communities" xmlns="http://www.w3.org/2000/svg">
        <defs>
            <linearGradient x1="170.649%" y1="50%" x2="-44.317%" y2="170.246%" id="aa">
                <stop stop-color="#FF52C1" offset="0%"/>
                <stop stop-color="#9952FF" offset="100%"/>
            </linearGradient>
        </defs>
        <g transform="translate(-284 -1628)" >
            <path d="M307.416 1629.333a3.136 3.136 0 00-3.132 3.132v.76a3.135 3.135 0 003.13 3.13h.002a3.11 3.11 0 002.213-.916 3.112 3.112 0 00.918-2.215v-.758a3.11 3.11 0 00-.917-2.214 3.112 3.112 0 00-2.214-.919zm0 8.19h-.002a4.302 4.302 0 01-4.296-4.299v-.76a4.303 4.303 0 014.298-4.297 4.273 4.273 0 013.039 1.26 4.27 4.27 0 011.259 3.039v.758a4.27 4.27 0 01-1.26 3.04 4.265 4.265 0 01-3.038 1.258zm-3.491 31.236h-1.167l.003-23.916h1.166l-.002 23.916m8.142 0H310.9l.003-23.916h1.166l-.002 23.916m-4.07 0h-1.168v-15.07h1.168v15.07"/>
            <path d="M313.534 1654.273h-2.048v-1.166h2.048a.77.77 0 00.768-.77v-9.357a2.832 2.832 0 00-1.943-2.694 15.808 15.808 0 00-9.887-.001 2.832 2.832 0 00-1.944 2.694l-.002 9.358a.77.77 0 00.77.768h2.047v1.167h-2.049a1.938 1.938 0 01-1.934-1.937v-9.356a3.999 3.999 0 012.745-3.801 16.989 16.989 0 0110.621 0 3.996 3.996 0 012.743 3.802v9.358a1.937 1.937 0 01-1.935 1.935m8.573-22.347a3.134 3.134 0 00-3.131 3.13v.76c0 .835.326 1.622.917 2.214.592.59 1.378.917 2.214.917a3.135 3.135 0 003.132-3.132v-.758a3.135 3.135 0 00-3.132-3.131zm0 8.187a4.27 4.27 0 01-3.039-1.258 4.27 4.27 0 01-1.259-3.04v-.76a4.302 4.302 0 014.298-4.296 4.303 4.303 0 014.298 4.298v.758a4.303 4.303 0 01-4.298 4.298zm-29.384-8.191a3.11 3.11 0 00-2.214.917 3.11 3.11 0 00-.917 2.215v.758a3.135 3.135 0 003.13 3.131 3.136 3.136 0 003.133-3.13v-.76a3.135 3.135 0 00-3.131-3.13h-.001zm0 8.188a4.302 4.302 0 01-4.297-4.298v-.758c0-1.15.447-2.229 1.259-3.04a4.269 4.269 0 013.038-1.258 4.303 4.303 0 014.299 4.298v.759a4.304 4.304 0 01-4.3 4.297zm34.036 28.65h-1.167l.001-21.325h1.167l-.001 21.325"/>
            <path d="M328.224 1656.864h-2.047v-1.166h2.047a.77.77 0 00.769-.768l.001-9.359a2.835 2.835 0 00-1.943-2.694 15.811 15.811 0 00-9.888-.001l-.367-1.107a16.997 16.997 0 0110.62.001 3.999 3.999 0 012.745 3.801l-.001 9.359a1.937 1.937 0 01-1.936 1.934m-9.607 11.896h-1.167l.001-21.326h1.167l-.001 21.326m4.07 0h-1.166v-12.48h1.167v12.48m-33.456-.004h-1.167l.003-21.325h1.166l-.002 21.325m4.072 0h-1.167l.001-12.478h1.167l-.001 12.478m4.07.001h-1.165v-21.325h1.167l-.002 21.325"/>
            <path d="M288.65 1656.86h-2.048a1.937 1.937 0 01-1.935-1.935v-9.357a3.997 3.997 0 012.745-3.801 16.956 16.956 0 0110.621 0l-.367 1.108a15.783 15.783 0 00-9.887-.001 2.834 2.834 0 00-1.944 2.694l-.002 9.357a.77.77 0 00.77.768h2.047v1.167"/>
        </g>
    </symbol>
    <symbol viewBox="0 0 20 16" id="icon-email" xmlns="http://www.w3.org/2000/svg">
            <path d="M18 0H2C.9 0 0 .9 0 2v12c0 1.1.9 2 2 2h16c1.1 0 2-.9 2-2V2c0-1.1-.9-2-2-2zm0 14h-2V5.2L10 9 4 5.2V14H2V2h1.2L10 6.2 16.8 2H18v12z"/>
    </symbol>
    <symbol viewBox="0 0 448 512" id="icon-facebook" xmlns="http://www.w3.org/2000/svg">
        <path d="M400 32H48A48 48 0 000 80v352a48 48 0 0048 48h137.3V327.7h-63V256h63v-54.64c0-62.15 37-96.48 93.67-96.48 27.14 0 55.52 4.84 55.52 4.84v61h-31.27c-30.81 0-40.42 19.12-40.42 38.73V256h68.78l-11 71.69H262.8V480H400a48 48 0 0048-48V80a48 48 0 00-48-48z"/>
    </symbol>
    <symbol viewBox="0 0 448 512" id="icon-instagram" xmlns="http://www.w3.org/2000/svg">
        <path d="M224.1 141c-63.6 0-114.9 51.3-114.9 114.9s51.3 114.9 114.9 114.9S339 319.5 339 255.9 287.7 141 224.1 141zm0 189.6c-41.1 0-74.7-33.5-74.7-74.7s33.5-74.7 74.7-74.7 74.7 33.5 74.7 74.7-33.6 74.7-74.7 74.7zm146.4-194.3c0 14.9-12 26.8-26.8 26.8-14.9 0-26.8-12-26.8-26.8s12-26.8 26.8-26.8 26.8 12 26.8 26.8zm76.1 27.2c-1.7-35.9-9.9-67.7-36.2-93.9-26.2-26.2-58-34.4-93.9-36.2-37-2.1-147.9-2.1-184.9 0-35.8 1.7-67.6 9.9-93.9 36.1s-34.4 58-36.2 93.9c-2.1 37-2.1 147.9 0 184.9 1.7 35.9 9.9 67.7 36.2 93.9s58 34.4 93.9 36.2c37 2.1 147.9 2.1 184.9 0 35.9-1.7 67.7-9.9 93.9-36.2 26.2-26.2 34.4-58 36.2-93.9 2.1-37 2.1-147.8 0-184.8zM398.8 388c-7.8 19.6-22.9 34.7-42.6 42.6-29.5 11.7-99.5 9-132.1 9s-102.7 2.6-132.1-9c-19.6-7.8-34.7-22.9-42.6-42.6-11.7-29.5-9-99.5-9-132.1s-2.6-102.7 9-132.1c7.8-19.6 22.9-34.7 42.6-42.6 29.5-11.7 99.5-9 132.1-9s102.7-2.6 132.1 9c19.6 7.8 34.7 22.9 42.6 42.6 11.7 29.5 9 99.5 9 132.1s2.7 102.7-9 132.1z"/>
    </symbol>
    <symbol viewBox="0 0 48 40" id="icon-messages" xmlns="http://www.w3.org/2000/svg">
        <path d="M29.44.24C21.336.236 12.88 2.062 4.346 4.43c-1.083.217-2.141.927-2.7 1.804-.515.825-.7 1.656-.862 2.526-.83 4.645-.728 9.207-.555 14.262.037 1.156.21 2.528.75 3.361.564.843 1.531 1.377 2.686 1.553 1.484.225 2.962.394 4.44.55l-.327 9.126a1.97 1.97 0 00.744 1.676c.395.3.835.434 1.286.467.902.068 1.96-.318 2.487-1.318 2.301-4.432 3.747-6.388 6.626-9.332 7.51.184 14.065-.233 21.488-.782 2.624-.068 4.424-2.214 4.9-3.926 1.425-4.44 1.646-9.92 1.797-15.46.064-2.197-.698-4.352-2.047-5.491-1.281-1.04-2.834-1.418-4.256-1.803C36.851.748 32.898.267 29.44.24zm10.796 3.473c1.424.386 2.68.76 3.471 1.402 1.323 1.405 1.279 2.34 1.26 3.856-.149 5.373-.407 10.588-1.62 14.54-.523 1.474-1.433 2.523-3.154 2.682-7.561.56-14.122.99-21.723.775a1.083 1.083 0 00-.8.317c-3.194 3.224-4.828 5.466-7.261 10.15-.057.108-.18.172-.33.184-.102-.006-.143-.084-.15-.155l.33-9.895c.02-.534-.421-1.044-.952-1.102a101.5 101.5 0 01-5.308-.65c-.762-.117-1.043-.325-1.252-.635-.363-.866-.354-1.401-.383-2.234-.17-5.009-.253-9.387.516-13.742.071-.645.312-1.304.568-1.854.424-.663 1.074-.76 1.725-.941 8.346-2.304 16.512-4.029 24.2-4.034 3.768.137 7.726.515 10.863 1.336zM11.407 12.2c-1.15 1.379-1.035 3.248-.147 4.502.464.655 1.188 1.183 2.07 1.302 1.144.094 1.87-.369 2.653-.901 1.42-1.235 1.564-3.387.484-4.942-.55-.792-1.428-1.268-2.326-1.3-1.23.012-2.065.56-2.734 1.339zm12.438-1.124c-1.145.037-2.071.83-2.637 1.686-.647.979-1.025 2.204-.501 3.406 1.007 2.31 4.486 2.282 5.875-.067.64-1.082.476-2.312 0-3.205-.475-.893-1.192-1.62-2.236-1.786a2.617 2.617 0 00-.501-.034zm10.098.217a3.835 3.835 0 00-1.068.117c-1.377.367-2.548 1.788-2.37 3.606.09.914.51 1.806 1.268 2.42.759.615 1.86.89 3.021.652 1.335-.274 2.161-1.349 2.437-2.388.276-1.038.207-2.096-.434-2.954-.709-.95-1.782-1.428-2.854-1.453zm-19.896 1.703c.257.002.46.084.668.384.467.674.337 1.694-.134 2.103-.47.409-.762.446-.968.418-.205-.028-.413-.17-.6-.434-.357-.503-.462-1.318.007-1.9.25-.331.708-.538 1.027-.571zm9.948.234c.04.006.487.266.701.667.214.402.254.775.05 1.119-.605 1.023-1.892.747-2.086.3-.074-.169-.019-.852.334-1.385.352-.533.795-.734 1.001-.701zm11.083.784c.065.087.224.671.1 1.136-.123.464-.324.75-.818.85-.632.13-.985 0-1.251-.216-.267-.216-.446-.58-.484-.968-.095-.965.252-1.19.8-1.336.642-.157 1.364.117 1.653.534z" />
    </symbol>
    <symbol viewBox="0 0 18 18" id="icon-phone" xmlns="http://www.w3.org/2000/svg">
            <path d="M17 12.5c-1.2 0-2.4-.2-3.6-.6-.3-.1-.7 0-1 .2l-2.2 2.2c-2.8-1.4-5.1-3.8-6.6-6.6l2.2-2.2c.3-.3.4-.7.2-1-.3-1.1-.5-2.3-.5-3.5 0-.6-.4-1-1-1H1C.4 0 0 .4 0 1c0 9.4 7.6 17 17 17 .6 0 1-.4 1-1v-3.5c0-.6-.4-1-1-1zM16 9h2c0-5-4-9-9-9v2c3.9 0 7 3.1 7 7zm-4 0h2c0-2.8-2.2-5-5-5v2c1.7 0 3 1.3 3 3z"/>
    </symbol>
    <symbol viewBox="0 0 448 512" id="icon-twitter" xmlns="http://www.w3.org/2000/svg">
        <path d="M400 32H48C21.5 32 0 53.5 0 80v352c0 26.5 21.5 48 48 48h352c26.5 0 48-21.5 48-48V80c0-26.5-21.5-48-48-48zm-48.9 158.8c.2 2.8.2 5.7.2 8.5 0 86.7-66 186.6-186.6 186.6-37.2 0-71.7-10.8-100.7-29.4 5.3.6 10.4.8 15.8.8 30.7 0 58.9-10.4 81.4-28-28.8-.6-53-19.5-61.3-45.5 10.1 1.5 19.2 1.5 29.6-1.2-30-6.1-52.5-32.5-52.5-64.4v-.8c8.7 4.9 18.9 7.9 29.6 8.3a65.45 65.45 0 01-29.2-54.6c0-12.2 3.2-23.4 8.9-33.1 32.3 39.8 80.8 65.8 135.2 68.6-9.3-44.5 24-80.6 64-80.6 18.9 0 35.9 7.9 47.9 20.7 14.8-2.8 29-8.3 41.6-15.8-4.9 15.2-15.2 28-28.8 36.1 13.2-1.4 26-5.1 37.8-10.2-8.9 13.1-20.1 24.7-32.9 34z"/>
    </symbol>
</svg>